<svg id="Layer_2" data-name="Layer 2" xmlns="http://www.w3.org/2000/svg" viewBox="0 0 208.98 197.41"><defs><style>.cls-1{fill:#ff3000;}</style></defs><title>butterfly</title><path class="cls-1" d="M492.4,1163s-13-1.92-8.64-16.32,23,1.44,20.64,4.8l4.32.39s-21.12-30.63,33.6-120.39c0,0,45.6,34.56,61.44,69.12,0,0,43.68-7.2,64.32-3.36,0,0-1.92,89.28-56.16,111.36,0,0-8.56,2.4-36.44-2.88,0,0,36.92,33.12-4.36,20.16C571.12,1225.84,494.8,1173,492.4,1163Z" transform="translate(-459.1 -1031.44)"/><path class="cls-1" d="M460.24,1141.36s14.4-1.44,23.52,5.28" transform="translate(-459.1 -1031.44)"/><path class="cls-1" d="M474.64,1120.72s2.84,18.59,10.3,23.22" transform="translate(-459.1 -1031.44)"/><ellipse class="cls-1" cx="3.24" cy="109.79" rx="3.24" ry="2.31"/><ellipse class="cls-1" cx="474.64" cy="1121.59" rx="3.24" ry="2.31" transform="translate(-1198.24 190.09) rotate(-71.77)"/></svg>