<svg id="Layer_1" data-name="Layer 1" xmlns="http://www.w3.org/2000/svg" viewBox="0 0 153.08 154.12"><defs><style>.cls-1,.cls-2{fill:none;}.cls-2{stroke:#f30;stroke-miterlimit:10;stroke-width:8px;}.cls-3{fill:#f30;}</style></defs><title>language process</title><path class="cls-1" d="M202,60.06v8c-.44,0-.89,0-1.33,0a68.45,68.45,0,0,0-55.11,27.84L139.24,91A76.5,76.5,0,0,1,200.67,60C201.12,60,201.56,60,202,60.06Z" transform="translate(-124.13 -59)"/><path class="cls-2" d="M200.67,64" transform="translate(-124.13 -59)"/><path class="cls-2" d="M200.67,64a72.53,72.53,0,1,1-57.95,28.9" transform="translate(-124.13 -59)"/><path class="cls-3" d="M187.07,133l1,.93a6.61,6.61,0,0,1-2.07,1.89,5,5,0,0,1-2.45.67,10.19,10.19,0,0,1-4.61-1,6.63,6.63,0,0,1-2.91-2.78,9,9,0,0,1-1-4.38V123a11.47,11.47,0,0,1,1-5,7.08,7.08,0,0,1,2.89-3.15,8.91,8.91,0,0,1,4.55-1.09,9,9,0,0,1,4.55,1.08A6.93,6.93,0,0,1,190.9,118a11.31,11.31,0,0,1,1,4.91v4.86a13.68,13.68,0,0,1-.49,3.89,36.29,36.29,0,0,1-1.53,4.05c-.08.22-.18.45-.28.67s-.2.45-.29.67l-6.12,14.74H179Zm-.14-1.36a5.3,5.3,0,0,0,1.23-3.74v-5.37a5.61,5.61,0,0,0-1.23-3.88,5.07,5.07,0,0,0-6.93,0,5.63,5.63,0,0,0-1.23,3.9V128a5.25,5.25,0,0,0,1.23,3.72,4.52,4.52,0,0,0,3.48,1.32A4.45,4.45,0,0,0,186.93,131.67Z" transform="translate(-124.13 -59)"/><path class="cls-3" d="M207.52,133l1,.93a6.61,6.61,0,0,1-2.07,1.89,5,5,0,0,1-2.45.67,10.19,10.19,0,0,1-4.61-1,6.56,6.56,0,0,1-2.9-2.78,8.92,8.92,0,0,1-1-4.38V123a11.33,11.33,0,0,1,1-5,7,7,0,0,1,2.88-3.15,8.91,8.91,0,0,1,4.55-1.09,9,9,0,0,1,4.55,1.08,6.93,6.93,0,0,1,2.87,3.11,11.31,11.31,0,0,1,1,4.91v4.86a13.68,13.68,0,0,1-.49,3.89,36.29,36.29,0,0,1-1.53,4.05c-.08.22-.18.45-.28.67s-.2.45-.28.67l-6.13,14.74h-4.14Zm-.14-1.36a5.3,5.3,0,0,0,1.23-3.74v-5.37a5.61,5.61,0,0,0-1.23-3.88,5.07,5.07,0,0,0-6.93,0,5.63,5.63,0,0,0-1.23,3.9V128a5.25,5.25,0,0,0,1.23,3.72,4.52,4.52,0,0,0,3.48,1.32A4.45,4.45,0,0,0,207.38,131.67Z" transform="translate(-124.13 -59)"/><path class="cls-3" d="M216.25,137.9a3.47,3.47,0,0,1-.86-2.49v-3.2a3.47,3.47,0,0,1,.86-2.49,3.83,3.83,0,0,1,4.91,0,3.51,3.51,0,0,1,.86,2.52v3.17a3.37,3.37,0,0,1-.87,2.49,3.82,3.82,0,0,1-4.9,0Zm11.44-8.85h2.12l-10.48,22.72H217.2Zm-8,7.52a1.39,1.39,0,0,0,.34-1V132a1.35,1.35,0,0,0-.34-1,1.3,1.3,0,0,0-1-.34,1.32,1.32,0,0,0-.95.33,1.35,1.35,0,0,0-.34,1v3.53a1.35,1.35,0,0,0,.34,1,1.51,1.51,0,0,0,1.91,0ZM226,151.12a3.47,3.47,0,0,1-.86-2.49v-3.2a3.47,3.47,0,0,1,.86-2.49,3.83,3.83,0,0,1,4.91,0,3.51,3.51,0,0,1,.86,2.52v3.17a3.4,3.4,0,0,1-.87,2.49,3.82,3.82,0,0,1-4.9,0Zm3.41-1.33a1.36,1.36,0,0,0,.34-1v-3.55a1.3,1.3,0,0,0-.34-1,1.29,1.29,0,0,0-.95-.34,1.33,1.33,0,0,0-1,.33,1.35,1.35,0,0,0-.34,1v3.53a1.36,1.36,0,0,0,.34,1,1.51,1.51,0,0,0,1.91,0Z" transform="translate(-124.13 -59)"/><line class="cls-1" x1="77.87" y1="10" x2="77.87" y2="9.06"/><line class="cls-1" x1="77.87" y1="1.06" x2="77.87"/><line class="cls-1" x1="22.87" y1="38" x2="21.43" y2="36.88"/><line class="cls-1" x1="15.11" y1="31.96" x2="13.87" y2="31"/></svg>